# xmcd
#
# Track frame offsets: 
#        182
#        13577
#        27997
#        39587
#        55493
#        67217
#        85631
#        102326
#        120643
#        134658
#
# Disc length: 1947 seconds
#
# Revision: 0
# Processed by: cddbd v1.5.2PL0 Copyright (c) Steve Scherf et al.
# Submitted via: ExactAudioCopy v1.0b1
#
DISCID=8b07990a
DTITLE=Destry - Waiting On An Island
DYEAR=2009
DGENRE=Alt. Rock
TTITLE0=This Island
TTITLE1=Don't Break My Heart
TTITLE2=Never Let You Go
TTITLE3=Gone
TTITLE4=Alabama
TTITLE5=Into The Rain
TTITLE6=Smile
TTITLE7=It All Got Worse
TTITLE8=Leave The Light On
TTITLE9=Stand Where You Stand
EXTD=
EXTT0=
EXTT1=
EXTT2=
EXTT3=
EXTT4=
EXTT5=
EXTT6=
EXTT7=
EXTT8=
EXTT9=
PLAYORDER=
